<svg viewBox="0 0 96 96" xmlns="http://www.w3.org/2000/svg" xmlns:xlink="http://www.w3.org/1999/xlink" id="Icons_GymnastFloorRoutine" overflow="hidden"><style>
.MsftOfcResponsive_Fill_e0753c {
 fill:#E0753C; 
}
</style>
<path d="M87.49 25.59C86.9618 24.6217 85.7494 24.2637 84.78 24.79 80.7 26.99 77.93 27.26 77.43 26.91L77.35 26.85C77.35 26.26 78.59 24.67 79 24.14 79.3111 23.779 79.5983 23.3982 79.86 23 80.97 21.22 82.63 17.88 81.25 15.46 80.71 14.51 79.52 13.38 76.95 13.46 74.57 13.52 71.56 14.98 68.06 16.67 67.17 17.11 66.25 17.55 65.34 17.97 60.91 20.02 54.34 20.42 53.34 19.41 54.1006 18.2904 55.1328 17.382 56.34 16.77L56.34 16.77C60.58 14.43 62.39 12.12 61.89 9.77 60.6 3.46 44.18 5.19 34.69 7.2 31.5817 7.92521 28.5355 8.89489 25.58 10.1 24.75 10.42 23.96 10.72 23.2 10.99 22.5136 11.2413 22.0189 11.8472 21.91 12.57L12.93 30C12.1021 30.0124 11.2985 30.2815 10.63 30.77 8.85258 32.0795 8.47215 34.5814 9.78 36.36L16.28 45.18C17.4376 46.7366 19.5453 47.2382 21.28 46.37L25 44.51C25.0957 46.252 25.3061 47.9857 25.63 49.7 26.3412 53.2292 27.5076 56.6512 29.1 59.88L20.89 69.36C20.497 69.8145 20.2101 70.3508 20.05 70.93L16.05 85.83C15.4714 87.962 16.7307 90.1594 18.8627 90.738 18.8651 90.7387 18.8676 90.7393 18.87 90.74 19.2127 90.8307 19.5655 90.8777 19.92 90.88 21.7392 90.8741 23.3252 89.6414 23.78 87.88L27.58 73.88 36.92 63.09 51.1 58.56C51.8989 58.3078 52.5985 57.8111 53.1 57.14L64.46 41.89C65.78 40.1061 65.4039 37.59 63.62 36.27 61.8361 34.95 59.32 35.3261 58 37.11L47.43 51.33 41.43 53.25C40.4953 51.2568 39.8036 49.1584 39.37 47 39.0804 45.3487 38.9266 43.6764 38.91 42L46.52 41.95C47.3695 41.9472 48.1961 41.674 48.88 41.17L58.38 34.17C60.1556 32.8556 60.5294 30.3506 59.215 28.575 57.9006 26.7994 55.3956 26.4256 53.62 27.74L45.17 33.99 29 34C28.378 34.0022 27.7651 34.1494 27.21 34.43L20.73 37.71 16.24 31.63C15.8968 31.1607 15.4525 30.7745 14.94 30.5L23.08 14.7C23.5504 14.9113 24.0842 14.9328 24.57 14.76L27 13.84C29.7619 12.7115 32.6071 11.7987 35.51 11.11 48.26 8.42 56.51 9.25 57.93 10.51 57.74 10.85 57.02 11.81 54.44 13.24L54.44 13.24C53.7 13.64 50 15.8 49.44 18.63 49.1943 19.7255 49.4511 20.8735 50.14 21.76 53.14 25.76 63.46 23.25 67.07 21.58 68.01 21.15 68.94 20.7 69.86 20.25 72.68 18.89 75.59 17.47 77.1 17.44 77.3449 17.4259 77.5907 17.446 77.83 17.5 77.6755 18.7105 77.2256 19.8644 76.52 20.86 76.42 21.03 76.16 21.35 75.92 21.66 74.75 23.14 73.15 25.16 73.44 27.39 73.5708 28.4676 74.1338 29.4458 75 30.1 75.9151 30.7466 77.0209 31.0671 78.14 31.01 81.21 31.01 84.88 29.27 86.66 28.3 87.6366 27.7839 88.0099 26.5739 87.4939 25.5973 87.4926 25.5949 87.4913 25.5924 87.49 25.59Z" class="MsftOfcResponsive_Fill_e0753c" fill="#4472C4"/><circle cx="35" cy="25" r="7" id="_16x16_circle_head" class="MsftOfcResponsive_Fill_e0753c" fill="#4472C4"/></svg>