<svg viewBox="0 0 96 96" xmlns="http://www.w3.org/2000/svg" xmlns:xlink="http://www.w3.org/1999/xlink" id="Icons_FirefighterFemale" overflow="hidden"><g id="Icons"><path d="M79 65C78.9 62.1 77.5 59.4 75.3 57.5 72.2 54.9 68.1 52.7 62.3 50.5 64.4 50.4 66.5 50 68.5 49.3 67.2 47.8 66.5 46 66.3 44 66.1 41.5 67.2 38.7 67.4 35.4 70.2 33.9 72 32.2 72 30.3 72 28.5 70.5 26.8 67.9 25.3 66.7 24.5 65.4 23.9 64 23.4 63.8 17.8 60.6 12.7 55.6 10L54 18.7C53.9 19.2 53.5 19.5 53 19.5L52.8 19.5C52.3 19.4 51.9 18.9 52 18.3 52 18.3 52 18.3 52 18.3L52 18.3 53.9 8.3C53.6 7 52.4 6 51 6L45 6C43.6 6 42.4 7 42.1 8.3L44 18.3C44.1 18.8 43.8 19.4 43.2 19.5L43 19.5C42.5 19.5 42.1 19.2 42 18.7L40.4 10C35.4 12.7 32.3 17.8 32 23.4 30.6 23.9 29.3 24.5 28.1 25.3 25.5 26.7 24 28.4 24 30.3 24 32.4 25.3 34.3 28.5 35.8 28.8 38.9 29.7 41.6 29.6 44 29.4 45.9 28.6 47.8 27.4 49.3 29.5 50 31.6 50.4 33.8 50.5 28 52.7 23.9 54.9 20.8 57.5 18.5 59.4 17.2 62.1 17.1 65L17.1 82.6 18 83.2C21.8 85.7 30.5 87.3 40.1 87.9L40.1 57.3 42.1 57.8 42.1 88C44.2 88.1 46.3 88.1 48.4 88.1 50.3 88.1 52.2 88.1 54.1 88L54.1 57.8 56.1 57.3 56.1 87.9C66 87.4 74.8 85.8 78.3 83.1L79.1 82.5 79.1 65ZM36 33 36 26.4C39.8 25 43.9 24.4 47.9 24.5 52 24.4 56.1 25 60 26.5L60 33C60 39.6 54.6 45 48 45 41.4 45 36 39.6 36 33ZM29 75 20 75 20 72 29 72 29 75ZM48 55C47.7 55 47.3 55 47 54.9L47 51.7C47 51.2 46.7 50.8 46.2 50.7L41.7 49.6C41.9 49.1 42 48.5 42 48L42 47.8C45.8 49.4 50.2 49.4 54 47.8L54 48C54 48.6 54.1 49.1 54.3 49.6L49.8 50.7C49.4 50.8 49 51.2 49 51.7L49 54.9C48.7 55 48.3 55 48 55ZM67.8 63.2C67.8 66.5 64 67.6 64 67.6 64 67.6 60.2 66.5 60.2 63.2 60.2 61.9 60.6 61.9 60.6 60.8 60.5 60.4 60.4 60 60.1 59.6L61.4 58.3C62.2 59 63.3 59 64.1 58.3 64.9 59 66 59 66.8 58.3L68.1 59.6C67.8 59.9 67.6 60.4 67.6 60.8 67.5 61.9 67.8 61.9 67.8 63.2ZM76 75 67 75 67 72 76 72 76 75Z" fill="#E06940"/></g></svg>